<svg width="31" height="30" viewBox="0 0 31 30" fill="none" xmlns="http://www.w3.org/2000/svg">
<g clip-path="url(#clip0_7_1469)">
<path d="M14.9414 29.8828C23.1152 29.8828 29.8828 23.1006 29.8828 14.9414C29.8828 6.76758 23.1006 0 14.9268 0C6.76758 0 0 6.76758 0 14.9414C0 23.1006 6.78223 29.8828 14.9414 29.8828ZM14.9414 27.3926C8.02734 27.3926 2.50488 21.8555 2.50488 14.9414C2.50488 8.02734 8.0127 2.49023 14.9268 2.49023C21.8408 2.49023 27.3926 8.02734 27.3926 14.9414C27.3926 21.8555 21.8555 27.3926 14.9414 27.3926Z" fill="#FFA012"/>
<path d="M21.46 15.6152C21.46 12.0117 18.501 9.18457 15.2051 9.18457C15.0732 9.18457 14.9121 9.21387 14.8096 9.21387L15.8496 8.15918C15.9961 7.99805 16.0986 7.74902 16.0986 7.5C16.0986 6.97266 15.7031 6.5625 15.1758 6.5625C14.9121 6.5625 14.6777 6.67969 14.502 6.85547L11.6895 9.71191C11.3525 10.0635 11.3379 10.7227 11.6895 11.0742L14.5312 13.916C14.6924 14.0625 14.9414 14.1797 15.1758 14.1797C15.7031 14.1797 16.0986 13.7842 16.0986 13.2715C16.0986 12.9932 15.9961 12.7734 15.8203 12.583L14.3994 11.1914C14.5459 11.1621 14.7363 11.1475 14.9268 11.1475C17.4463 11.1475 19.4385 13.1543 19.4385 15.6592C19.4385 18.1787 17.4463 20.1855 14.9268 20.1855C12.4219 20.1855 10.415 18.1641 10.415 15.6592C10.415 15.1172 9.96094 14.6631 9.4043 14.6631C8.8623 14.6631 8.39355 15.1172 8.39355 15.6592C8.39355 19.2773 11.3086 22.207 14.9268 22.207C18.5449 22.207 21.46 19.2773 21.46 15.6152Z" fill="#FFA012"/>
</g>
<defs>
<clipPath id="clip0_7_1469">
<rect width="30.249" height="29.8975" fill="white"/>
</clipPath>
</defs>
</svg>
