<svg width="31" height="30" viewBox="0 0 31 30" fill="none" xmlns="http://www.w3.org/2000/svg">
<g clip-path="url(#clip0_1_357)">
<path d="M14.9926 29.9853C23.1944 29.9853 29.9853 23.1798 29.9853 14.9926C29.9853 6.79078 23.1798 0 14.978 0C6.79078 0 0 6.79078 0 14.9926C0 23.1798 6.80548 29.9853 14.9926 29.9853ZM14.9926 27.4865C8.05486 27.4865 2.51347 21.9304 2.51347 14.9926C2.51347 8.05486 8.04017 2.49877 14.978 2.49877C21.9157 2.49877 27.4865 8.05486 27.4865 14.9926C27.4865 21.9304 21.9304 27.4865 14.9926 27.4865Z" fill="#35CC00"/>
<path d="M13.3756 21.9745C13.8607 21.9745 14.2722 21.7393 14.5662 21.2836L21.2834 10.7153C21.4452 10.4213 21.6362 10.098 21.6362 9.77459C21.6362 9.11315 21.0483 8.68689 20.4309 8.68689C20.0635 8.68689 19.696 8.92206 19.4167 9.34833L13.3168 19.1377L10.4211 15.3895C10.0684 14.9192 9.74501 14.8016 9.33346 14.8016C8.70142 14.8016 8.20166 15.316 8.20166 15.9627C8.20166 16.2861 8.33394 16.5948 8.53973 16.874L12.1262 21.2836C12.4937 21.7687 12.8906 21.9745 13.3756 21.9745Z" fill="#35CC00"/>
</g>
<defs>
<clipPath id="clip0_1_357">
<rect width="30.3527" height="30" fill="white"/>
</clipPath>
</defs>
</svg>
