<svg width="20" height="20" viewBox="0 0 20 20" fill="none" xmlns="http://www.w3.org/2000/svg">
<g clip-path="url(#clip0_8_1479)">
<path d="M9.87894 19.9902C15.2833 19.9902 19.7579 15.4532 19.7579 9.99508C19.7579 4.52719 15.2736 0 9.86928 0C4.47458 0 0 4.52719 0 9.99508C0 15.4532 4.48427 19.9902 9.87894 19.9902ZM9.87894 18.3243C5.30751 18.3243 1.65617 14.6203 1.65617 9.99508C1.65617 5.36991 5.29783 1.66584 9.86928 1.66584C14.4407 1.66584 18.1114 5.36991 18.1114 9.99508C18.1114 14.6203 14.4504 18.3243 9.87894 18.3243Z" fill="#999999"/>
<path d="M5.38477 9.99509C5.38477 10.4753 5.71407 10.7986 6.20801 10.7986H9.05548V13.6894C9.05548 14.1793 9.38475 14.5223 9.85934 14.5223C10.3436 14.5223 10.6826 14.1891 10.6826 13.6894V10.7986H13.5397C14.024 10.7986 14.363 10.4753 14.363 9.99509C14.363 9.50515 14.024 9.16218 13.5397 9.16218H10.6826V6.28123C10.6826 5.78148 10.3436 5.43851 9.85934 5.43851C9.38475 5.43851 9.05548 5.78148 9.05548 6.28123V9.16218H6.20801C5.71407 9.16218 5.38477 9.50515 5.38477 9.99509Z" fill="#999999"/>
</g>
<defs>
<clipPath id="clip0_8_1479">
<rect width="20" height="20" fill="white"/>
</clipPath>
</defs>
</svg>
