<svg width="31" height="30" viewBox="0 0 31 30" fill="none" xmlns="http://www.w3.org/2000/svg">
<g clip-path="url(#clip0_1_397)">
<path d="M14.9926 29.9853C23.1944 29.9853 29.9853 23.1798 29.9853 14.9926C29.9853 6.79078 23.1798 0 14.978 0C6.79078 0 0 6.79078 0 14.9926C0 23.1798 6.80548 29.9853 14.9926 29.9853ZM14.9926 27.4865C8.05486 27.4865 2.51347 21.9304 2.51347 14.9926C2.51347 8.05486 8.04017 2.49877 14.978 2.49877C21.9157 2.49877 27.4865 8.05486 27.4865 14.9926C27.4865 21.9304 21.9304 27.4865 14.9926 27.4865Z" fill="#CC3D00"/>
<path d="M11.1859 23.6501H18.7851C19.7698 23.6501 20.3725 23.0916 20.4167 22.1067L20.9164 10.4801H22.0776C22.4303 10.4801 22.6949 10.2008 22.7096 9.86279C22.7243 9.51003 22.4303 9.23075 22.0776 9.23075H18.5499V8.04017C18.5499 6.82018 17.7415 6.05585 16.448 6.05585H13.4788C12.2001 6.05585 11.4064 6.82018 11.4064 8.04017V9.23075H7.86397C7.52591 9.23075 7.23193 9.51003 7.23193 9.86279C7.23193 10.2008 7.52591 10.4801 7.86397 10.4801H9.06927L9.58372 22.1067C9.61312 23.0916 10.1864 23.6501 11.1859 23.6501ZM12.4499 21.3718C12.156 21.3718 11.9208 21.1661 11.9208 20.8721L11.6122 12.2881C11.6122 11.9794 11.8032 11.7736 12.156 11.7736C12.4499 11.7736 12.6851 11.9647 12.6851 12.2881L12.9644 20.8721C12.9644 21.1661 12.7733 21.3718 12.4499 21.3718ZM14.9634 21.3718C14.64 21.3718 14.4196 21.1661 14.4196 20.8721V12.2881C14.4196 11.9794 14.6254 11.7736 14.9634 11.7736C15.2868 11.7736 15.5073 11.9794 15.5073 12.2881V20.8721C15.5073 21.1661 15.2868 21.3718 14.9634 21.3718ZM17.4622 21.3718C17.1389 21.3718 16.9477 21.1661 16.9477 20.8721L17.2271 12.2881C17.2417 11.9647 17.4622 11.7736 17.7709 11.7736C18.109 11.7736 18.3 11.9794 18.3 12.2881L17.9914 20.8721C17.9914 21.1661 17.7562 21.3718 17.4622 21.3718ZM12.8909 9.23075V8.11366C12.8909 7.73149 13.1702 7.48161 13.567 7.48161H16.3598C16.7566 7.48161 17.0359 7.73149 17.0359 8.11366V9.23075H12.8909Z" fill="#CC3D00"/>
</g>
<defs>
<clipPath id="clip0_1_397">
<rect width="30.3527" height="30" fill="white"/>
</clipPath>
</defs>
</svg>
